<svg width="530" height="177" viewBox="0 0 530 177" fill="none" xmlns="http://www.w3.org/2000/svg">
<path d="M193.435 162.604V147.835H191.545V155.935C191.545 159.472 189.439 161.254 186.901 161.254C183.823 161.254 182.392 159.418 182.392 156.07V147.835H180.502V156.286C180.502 161.281 183.742 162.955 186.901 162.955C189.034 162.955 190.762 162.01 191.599 160.309H191.653V162.604H193.435Z" fill="white"/>
<path d="M209.997 162.604V154.369C209.997 150.265 207.567 147.457 203.49 147.457C201.573 147.457 199.899 148.294 198.954 149.725H198.9V147.835H197.01V162.604H198.9V154.234C198.9 151.345 200.655 149.158 203.517 149.158C206.109 149.158 208.107 151.048 208.107 154.369V162.604H209.997Z" fill="white"/>
<path d="M228.501 162.604V147.835H226.611V150.427H226.557C225.369 148.564 223.263 147.457 220.806 147.457C216.486 147.457 212.868 150.751 212.868 155.179C212.868 159.607 216.378 162.955 220.806 162.955C223.209 162.955 225.342 161.848 226.557 160.012H226.611V162.604H228.501ZM220.806 161.254C217.323 161.254 214.758 158.662 214.758 155.26C214.758 151.75 217.377 149.158 220.779 149.158C224.127 149.158 226.719 151.939 226.719 155.233C226.719 158.554 224.1 161.254 220.806 161.254Z" fill="white"/>
<path d="M251.963 158.257C250.91 160.228 248.993 161.254 246.752 161.254C243.323 161.254 240.65 158.581 240.65 155.179C240.65 151.831 243.35 149.158 246.752 149.158C248.885 149.158 250.856 150.238 251.963 152.29H254.042C252.827 149.266 249.938 147.457 246.698 147.457C242.324 147.457 238.76 151.021 238.76 155.071C238.76 159.688 242.297 162.955 246.698 162.955C250.127 162.955 252.53 161.254 254.042 158.257H251.963Z" fill="white"/>
<path d="M263.964 162.955C268.122 162.955 271.713 159.499 271.713 155.206C271.713 151.075 268.257 147.457 263.964 147.457C259.779 147.457 256.269 150.967 256.269 155.314C256.269 159.418 259.779 162.955 263.964 162.955ZM263.991 161.254C260.778 161.254 258.159 158.527 258.159 155.287C258.159 151.939 260.751 149.158 263.964 149.158C267.231 149.158 269.823 151.912 269.823 155.125C269.823 158.5 267.312 161.254 263.991 161.254Z" fill="white"/>
<path d="M296.371 162.604V153.748C296.371 150.265 294.265 147.457 290.458 147.457C288.298 147.457 286.651 148.483 285.49 150.292C284.437 148.456 282.655 147.457 280.522 147.457C278.902 147.457 277.39 148.132 276.499 149.536V147.835H274.609V162.604H276.499V153.964C276.499 151.075 277.903 149.158 280.522 149.158C283.141 149.158 284.545 151.075 284.545 153.964V162.604H286.435V153.991C286.435 151.102 287.866 149.158 290.458 149.158C293.131 149.158 294.481 151.129 294.481 153.937V162.604H296.371Z" fill="white"/>
<path d="M301.784 167.788V160.012H301.838C303.161 161.929 305.294 162.955 307.589 162.955C312.125 162.955 315.527 159.526 315.527 155.179C315.527 150.886 312.071 147.457 307.589 147.457C305.24 147.457 303.215 148.483 301.838 150.427H301.784V147.835H299.894V167.788H301.784ZM313.637 155.26C313.637 158.635 311.099 161.254 307.589 161.254C304.241 161.254 301.676 158.527 301.676 155.233C301.676 151.858 304.376 149.158 307.562 149.158C311.153 149.158 313.637 151.858 313.637 155.26Z" fill="white"/>
<path d="M333.337 162.604V147.835H331.447V150.427H331.393C330.205 148.564 328.099 147.457 325.642 147.457C321.322 147.457 317.704 150.751 317.704 155.179C317.704 159.607 321.214 162.955 325.642 162.955C328.045 162.955 330.178 161.848 331.393 160.012H331.447V162.604H333.337ZM325.642 161.254C322.159 161.254 319.594 158.662 319.594 155.26C319.594 151.75 322.213 149.158 325.615 149.158C328.963 149.158 331.555 151.939 331.555 155.233C331.555 158.554 328.936 161.254 325.642 161.254Z" fill="white"/>
<path d="M349.743 162.604V154.369C349.743 150.265 347.313 147.457 343.236 147.457C341.319 147.457 339.645 148.294 338.7 149.725H338.646V147.835H336.756V162.604H338.646V154.234C338.646 151.345 340.401 149.158 343.263 149.158C345.855 149.158 347.853 151.048 347.853 154.369V162.604H349.743ZM346.935 142.651C346.395 142.975 345.882 143.353 345.234 143.353C344.073 143.353 342.885 142.246 341.4 142.246C340.32 142.246 339.348 142.651 338.592 143.38L339.537 144.73C339.996 144.298 340.671 143.92 341.346 143.92C342.534 143.92 343.641 145.027 345.261 145.027C346.206 145.027 347.151 144.514 347.907 143.974L346.935 142.651Z" fill="white"/>
<path d="M355.125 162.604V147.835H353.235V162.604H355.125ZM358.527 143.002L357.663 141.382L352.29 144.325L353.181 145.891L358.527 143.002Z" fill="white"/>
<path d="M373.653 162.604V147.835H371.763V150.427H371.709C370.521 148.564 368.415 147.457 365.958 147.457C361.638 147.457 358.02 150.751 358.02 155.179C358.02 159.607 361.53 162.955 365.958 162.955C368.361 162.955 370.494 161.848 371.709 160.012H371.763V162.604H373.653ZM365.958 161.254C362.475 161.254 359.91 158.662 359.91 155.26C359.91 151.75 362.529 149.158 365.931 149.158C369.279 149.158 371.871 151.939 371.871 155.233C371.871 158.554 369.252 161.254 365.958 161.254Z" fill="white"/>
<g clip-path="url(#clip0_513_343)">
<path d="M414.109 141.964C412.529 140.938 410.68 140.404 408.797 140.432C406.92 140.42 405.07 140.883 403.421 141.78C402.323 142.388 401.321 143.155 400.446 144.056V141.066H395.671V167.147H400.446V157.344C400.446 154.205 400.59 152.033 400.869 150.912C401.297 149.242 402.247 147.752 403.58 146.66C404.853 145.551 406.487 144.947 408.175 144.963C409.642 144.963 410.834 145.315 411.716 146.013C412.598 146.712 413.202 147.778 413.527 149.217C413.677 149.83 413.854 151.255 413.854 154.661V167.147H418.627V153.742C418.627 150.271 418.275 147.765 417.552 146.084C416.843 144.396 415.644 142.961 414.109 141.964Z" fill="white"/>
<path d="M433.616 141.066H428.629V131.99H423.856V141.066H419.565V145.413H423.856V167.138H428.629V145.413H433.616V141.066Z" fill="white"/>
<path d="M389.387 131C388.941 130.995 388.499 131.081 388.088 131.254C387.677 131.427 387.306 131.682 386.998 132.004C386.676 132.318 386.422 132.695 386.25 133.11C386.078 133.526 385.993 133.972 385.999 134.421C385.994 134.868 386.08 135.311 386.252 135.723C386.423 136.136 386.677 136.509 386.998 136.82C387.306 137.142 387.677 137.397 388.088 137.57C388.499 137.743 388.941 137.83 389.387 137.825C389.836 137.83 390.282 137.744 390.697 137.571C391.111 137.399 391.486 137.143 391.798 136.82C392.118 136.509 392.37 136.137 392.542 135.726C392.713 135.315 392.799 134.873 392.794 134.427C392.8 133.978 392.716 133.532 392.544 133.117C392.373 132.701 392.119 132.325 391.798 132.01C391.487 131.686 391.112 131.429 390.697 131.256C390.283 131.082 389.837 130.995 389.387 131Z" fill="white"/>
<path d="M391.784 141.066H387.011V167.138H391.784V141.066Z" fill="white"/>
<path d="M525.27 141.066V144.13C524.12 142.931 522.735 141.984 521.2 141.347C519.666 140.711 518.017 140.399 516.356 140.432C514.585 140.41 512.828 140.752 511.194 141.437C509.561 142.122 508.085 143.136 506.86 144.414C505.59 145.667 504.586 147.164 503.909 148.814C503.232 150.464 502.896 152.234 502.92 154.018C502.889 155.817 503.218 157.604 503.888 159.274C504.559 160.944 505.556 162.463 506.823 163.741C508.034 165.028 509.498 166.049 511.124 166.741C512.749 167.433 514.501 167.78 516.267 167.76C518.256 167.779 520.221 167.337 522.011 166.47C523.205 165.873 524.304 165.103 525.273 164.185V167.147H530.003V141.066H525.27ZM521.092 162.041C519.724 162.825 518.175 163.238 516.598 163.238C515.053 163.243 513.536 162.828 512.208 162.038C510.839 161.228 509.713 160.064 508.949 158.668C508.154 157.288 507.736 155.724 507.736 154.131C507.736 152.539 508.154 150.974 508.949 149.595C509.701 148.223 510.81 147.081 512.158 146.289C513.506 145.497 515.044 145.084 516.607 145.095C517.781 145.065 518.948 145.281 520.033 145.73C521.118 146.179 522.096 146.851 522.905 147.701C524.627 149.46 525.466 151.592 525.466 154.22C525.489 155.825 525.096 157.408 524.324 158.815C523.568 160.171 522.449 161.288 521.092 162.041Z" fill="white"/>
<path d="M505.846 141.786L505.104 141.369C504.141 140.791 503.045 140.469 501.922 140.435C500.576 140.447 499.263 140.857 498.151 141.614C497.502 142.045 496.907 142.551 496.377 143.122V141.066H491.537V167.147H496.377V158.055C496.377 153.911 496.564 151.141 496.931 149.827C497.394 148.176 498.062 146.96 498.91 146.206C499.759 145.453 500.552 145.119 501.404 145.119C501.869 145.151 502.324 145.273 502.743 145.48L503.389 145.759L505.846 141.786Z" fill="white"/>
<path d="M459.664 154.339C459.633 150.832 458.665 147.851 456.79 145.486C454.15 142.135 450.578 140.435 446.167 140.435C441.878 140.435 438.398 142.098 435.834 145.376C433.846 147.873 432.777 150.977 432.804 154.168C432.8 157.632 434.071 160.977 436.376 163.563C438.775 166.351 442.129 167.76 446.347 167.76C448.096 167.784 449.834 167.488 451.475 166.887C452.992 166.303 454.384 165.436 455.577 164.332C456.891 163.078 457.971 161.6 458.766 159.967L459.131 159.253L455.087 157.127L454.692 157.786C453.773 159.317 452.937 160.402 452.18 161.06C451.363 161.746 450.429 162.28 449.423 162.635C448.35 163.029 447.215 163.231 446.072 163.232C444.967 163.261 443.868 163.055 442.849 162.628C441.829 162.202 440.912 161.564 440.156 160.757C438.699 159.242 437.83 157.256 437.706 155.157H459.673L459.664 154.339ZM438.288 150.817C438.864 149.239 439.63 148.02 440.57 147.18C442.113 145.786 444.133 145.039 446.213 145.091C447.528 145.084 448.83 145.368 450.023 145.921C451.144 146.419 452.134 147.171 452.915 148.118C453.537 148.928 454.01 149.841 454.312 150.817H438.288Z" fill="white"/>
<path d="M483.379 144.068C482.377 143.088 481.227 142.272 479.97 141.651C478.263 140.836 476.394 140.417 474.502 140.426C470.931 140.432 467.509 141.855 464.987 144.382C462.464 146.909 461.048 150.334 461.048 153.904C461.029 156.228 461.625 158.515 462.775 160.533C463.938 162.555 465.634 164.219 467.677 165.343C469.574 166.418 471.701 167.025 473.881 167.112C476.06 167.198 478.229 166.763 480.206 165.842C481.363 165.302 482.432 164.591 483.376 163.731C483.318 165.86 483.036 167.426 482.534 168.394C481.982 169.451 481.033 170.348 479.706 171.065C478.38 171.782 476.661 172.165 474.664 172.165C472.667 172.165 470.924 171.803 469.579 171.093C468.197 170.333 467.061 169.195 466.304 167.812L466.069 167.401H460.907L461.437 168.556C462.356 170.563 463.394 172.122 464.5 173.188C465.759 174.341 467.248 175.216 468.868 175.755C470.775 176.402 472.777 176.719 474.79 176.692C477.786 176.692 480.399 176.04 482.555 174.756C484.711 173.493 486.352 171.51 487.19 169.157C487.83 167.459 488.143 164.902 488.143 161.342V141.066H483.379V144.068ZM482.427 149.38C483.182 150.77 483.564 152.332 483.536 153.914C483.536 156.542 482.751 158.594 481.14 160.187C479.529 161.78 477.427 162.552 474.735 162.552C472.042 162.552 469.971 161.768 468.317 160.153C466.663 158.539 465.866 156.563 465.866 154.088C465.86 152.5 466.273 150.938 467.064 149.561C467.84 148.191 468.977 147.06 470.351 146.292C471.742 145.501 473.315 145.087 474.915 145.091C476.452 145.087 477.963 145.484 479.299 146.243C480.613 146.977 481.696 148.064 482.427 149.38Z" fill="white"/>
</g>
<g clip-path="url(#clip1_513_343)">
<path fill-rule="evenodd" clip-rule="evenodd" d="M249.543 29.4745L237.642 43.7315H224.503C221.066 43.7315 218.815 46.1127 217.75 50.875L214.643 64.5768H233.155L221.059 78.7887C214.896 78.7887 211.394 80.6947 210.554 84.5066L205.639 107.505C204.686 111.895 201.009 129.394 205.023 129.394C204.686 129.394 182.062 129.349 177.38 129.349C176.442 129.349 181.642 112.353 182.002 110.694L185.424 94.6591C189.106 77.2155 192.485 61.4202 195.561 47.2732C196.632 42.2708 199.383 38.0537 203.815 34.622C207.873 31.3225 212.933 29.5018 218.162 29.4595L249.543 29.4745Z" fill="white"/>
<path fill-rule="evenodd" clip-rule="evenodd" d="M298.647 110.717C297.546 115.972 294.623 120.669 290.393 123.976C286.391 127.46 281.27 129.391 275.963 129.416H236.944C234.957 129.481 232.976 129.151 231.116 128.447C229.257 127.742 227.555 126.677 226.109 125.312C223.257 122.58 221.832 119.016 221.832 114.619C221.89 113.302 222.071 111.993 222.372 110.709L227.002 88.2585C228.067 83.216 230.819 78.8363 235.256 75.1195C239.693 71.4027 244.475 69.5442 249.603 69.5442H288.795C290.76 69.4853 292.718 69.8193 294.553 70.5266C296.387 71.234 298.063 72.3006 299.48 73.6638C300.895 75.0244 302.008 76.6676 302.746 78.4866C303.484 80.3055 303.831 82.2595 303.764 84.2215C303.783 85.5411 303.662 86.859 303.404 88.1534L298.647 110.717ZM276.383 107.468L279.888 91.8152C280.245 90.246 280.182 88.6105 279.708 87.0729C279.575 86.3826 279.199 85.7628 278.649 85.3263C278.098 84.8897 277.408 84.6654 276.706 84.6942H255.396C252.319 84.6942 250.316 87.0879 249.393 91.8452L245.979 107.52C245.615 109.007 245.672 110.566 246.144 112.023C246.3 112.691 246.686 113.283 247.235 113.694C247.784 114.106 248.46 114.311 249.145 114.274H270.358C273.41 114.274 275.411 112.005 276.361 107.468H276.383Z" fill="white"/>
<path fill-rule="evenodd" clip-rule="evenodd" d="M380.647 88.2284L357.131 91.8227C357.25 91.2222 357.31 90.6115 357.311 89.9993C357.311 86.4676 356.188 84.6992 353.942 84.6942H341.523C338.439 84.6942 336.436 87.0879 335.483 91.8452L332.076 107.52C330.628 116.525 327.431 129.416 331.686 129.416H303.404C303.059 129.416 304.98 127.735 306.008 124.164C307.464 119.181 308.259 111.722 308.499 110.694L313.122 88.2434C314.197 83.201 316.949 78.8213 321.376 75.1045C325.803 71.3876 330.58 69.5292 335.708 69.5292H366.008C367.973 69.4716 369.93 69.8076 371.764 70.5177C373.598 71.2277 375.271 72.2974 376.685 73.6638C378.101 75.0316 379.213 76.6816 379.95 78.5068C380.687 80.3321 381.032 82.2918 380.963 84.259C380.978 85.589 380.873 86.9176 380.647 88.2284Z" fill="white"/>
<path d="M104.451 96.4975L104.271 100.069C104.271 104.204 104.984 107.776 107.595 110.777C109.165 112.376 110.985 113.709 112.983 114.724C115.051 115.563 117.257 116.008 119.489 116.037C126.565 116.037 130.699 113.036 134.541 107.108H146.592C149.705 104.021 152.28 100.435 154.208 96.4975H104.451Z" fill="white"/>
<path d="M78.7887 128.478C70.2345 121.02 65.2821 111.13 65.9574 98.8537C66.0925 96.2799 67.0755 88.5961 67.0755 88.5961C67.8536 84.1223 69.1323 79.7502 70.8874 75.5622C72.7376 71.1142 75.1402 66.9167 78.0384 63.0685C83.2359 55.865 90.6746 49.4068 100.354 43.694C105.039 41.3127 109.964 39.4386 115.047 38.1038C117.388 37.6085 120.059 37.1633 123.061 36.7681C125.962 36.3979 128.885 36.21 131.81 36.2053C135.341 36.1926 138.869 36.4283 142.368 36.9107C139.576 32.5435 136.41 28.0413 132.868 23.404C122.363 9.70978 104.646 6.67078 79.6292 14.4446C26.0428 30.8277 16.6907 62.2106 51.5729 108.593C52.4208 109.779 53.2612 110.957 54.2817 112.143C61.5828 121.507 70.0394 127.15 79.7942 129.289C79.4341 129.018 79.1039 128.756 78.7887 128.478Z" fill="white"/>
<path d="M115.339 64.044C111.677 66.8354 109.289 71.0224 108.173 76.6052H146.667C146.759 74.2846 146.506 71.9632 145.917 69.7168C145.462 67.8199 144.497 66.0838 143.125 64.6968C140.522 61.4702 134.991 59.8644 130.279 59.8644C124.959 59.8644 118.994 61.2526 115.339 64.044Z" fill="white"/>
<path d="M154.208 96.4975C152.28 100.435 149.705 104.021 146.592 107.108H171.564C167.97 115.962 163.048 123.616 153.008 130.024C142.968 136.432 129.941 139.659 113.944 139.659C99.6115 139.659 88.2159 136.2 79.7567 129.281C70.077 127.158 61.5753 121.507 54.2817 112.143C53.2612 110.957 52.4208 109.779 51.5729 108.593C16.7557 62.2907 26.1053 30.9127 79.6217 14.4596C88.6261 11.6532 96.7001 10.2525 103.844 10.2576C116.49 10.2576 126.162 14.6447 132.86 23.419C136.407 28.0713 139.574 32.5735 142.36 36.9257C149.053 37.8711 154.771 39.7771 159.514 42.6435L159.641 42.7185C154.507 34.0614 148.898 25.6946 142.84 17.6562C134.376 8.20904 122.888 2.45371 108.864 0.592794C105.489 0.197205 102.094 -0.000729741 98.6961 2.02152e-06C88.326 0.0953923 78.0271 1.7238 68.1335 4.83238C0.877926 25.6101 -16.7032 63.4737 15.9078 117.891C20.9575 126.252 26.5497 134.273 32.6486 141.902C46.0577 158.936 62.3482 167.467 81.34 167.467C86.5047 167.438 91.6514 166.857 96.6926 165.734C129.821 158.133 152.805 146.81 165.652 131.262C173.891 121.347 177.928 109.767 177.762 96.52L154.208 96.4975Z" fill="white"/>
</g>
<defs>
<clipPath id="clip0_513_343">
<rect width="144" height="45.7076" fill="white" transform="translate(386 131)"/>
</clipPath>
<clipPath id="clip1_513_343">
<rect width="381" height="167.445" fill="white"/>
</clipPath>
</defs>
</svg>
