<?xml version="1.0" encoding="UTF-8"?><svg id="Capa_2" xmlns="http://www.w3.org/2000/svg" viewBox="0 0 108.4 81.92"><defs><style>.cls-1,.cls-2{fill:#fff;}.cls-2{stroke:#fff;stroke-miterlimit:10;stroke-width:.5px;}.cls-3{fill:#fdfeff;}</style></defs><g id="Capa_1-2"><g><line class="cls-2" y1="40.49" x2="108.4" y2="40.49"/><g><path class="cls-1" d="M.31,12.63V.72H4.99c1.01,0,1.78,.29,2.3,.88,.52,.59,.79,1.38,.79,2.38s-.26,1.79-.79,2.38c-.53,.59-1.29,.88-2.3,.88H.95v5.39H.31ZM.95,6.67H4.99c.4,0,.75-.06,1.05-.19,.3-.13,.55-.29,.75-.5s.35-.46,.45-.74c.1-.29,.15-.58,.15-.89v-.75c0-.31-.05-.6-.15-.89s-.25-.53-.45-.74c-.2-.21-.45-.38-.75-.5s-.65-.19-1.05-.19H.95V6.67Z"/><path class="cls-1" d="M15.43,12.63c-.47,0-.72-.24-.74-.72v-.63h-.07c-.21,.44-.54,.81-.98,1.11-.45,.3-1.05,.44-1.81,.44-.91,0-1.61-.22-2.11-.65s-.74-1.04-.74-1.83c0-.38,.06-.72,.17-1.02,.12-.31,.31-.57,.58-.79,.27-.22,.62-.39,1.05-.51,.43-.12,.96-.18,1.6-.18h2.3v-1.16c0-.82-.2-1.42-.61-1.82-.4-.39-1-.59-1.79-.59-1.23,0-2.08,.51-2.55,1.54l-.43-.29c.24-.54,.6-.96,1.07-1.29s1.12-.49,1.93-.49c.98,0,1.72,.25,2.23,.74s.76,1.2,.76,2.12v5.48h1.35v.53h-1.19Zm-3.56-.32c.38,0,.74-.05,1.08-.15s.64-.24,.89-.42c.25-.18,.45-.41,.6-.68,.15-.27,.22-.59,.22-.96v-1.78h-2.3c-.97,0-1.67,.16-2.11,.49-.44,.33-.66,.75-.66,1.29v.48c0,.57,.21,1,.63,1.29s.96,.44,1.63,.44Z"/><path class="cls-1" d="M17.94,12.63V3.96h.6v1.52h.07c.18-.41,.48-.76,.9-1.07s1.01-.45,1.79-.45h.66v.56h-.76c-.36,0-.7,.05-1.02,.14-.32,.09-.61,.23-.85,.41-.24,.18-.44,.41-.58,.67-.14,.27-.21,.58-.21,.93v5.96h-.6Z"/><path class="cls-1" d="M24.46,12.63c-.49,0-.74-.24-.74-.72V4.49h-1.59v-.53h1.14c.2,0,.33-.04,.39-.12,.06-.08,.1-.22,.1-.41V1.5h.57V3.96h2.05v.53h-2.05v7.61h1.92v.53h-1.78Z"/><path class="cls-1" d="M28.07,12.63V3.96h.6v1.33h.05c.17-.42,.47-.78,.91-1.08s1.03-.45,1.79-.45c.97,0,1.71,.28,2.22,.84,.51,.56,.77,1.39,.77,2.47v5.56h-.6V7.17c0-1-.22-1.73-.65-2.19s-1.06-.69-1.87-.69c-.33,0-.66,.04-.97,.14-.32,.09-.6,.23-.84,.41-.24,.18-.43,.41-.58,.68-.14,.27-.22,.59-.22,.96v6.16h-.6Z"/><path class="cls-1" d="M39.94,12.84c-1.16,0-2.08-.39-2.75-1.16-.67-.77-1.01-1.9-1.01-3.38s.33-2.59,.98-3.37c.66-.78,1.56-1.17,2.71-1.17,.54,0,1.03,.1,1.48,.31,.44,.2,.82,.49,1.14,.87,.32,.38,.56,.83,.73,1.36,.17,.53,.26,1.12,.26,1.77v.27h-6.66v.46c0,.54,.07,1.02,.21,1.45,.14,.43,.34,.8,.61,1.11,.27,.31,.6,.54,.98,.71,.39,.17,.83,.25,1.32,.25,1.39,0,2.35-.66,2.88-1.98l.47,.26c-.27,.68-.68,1.23-1.24,1.64-.56,.41-1.27,.61-2.11,.61Zm-.07-8.55c-.48,0-.91,.08-1.29,.25-.38,.17-.7,.4-.96,.71-.27,.31-.47,.68-.6,1.11-.14,.43-.21,.91-.21,1.43v.07h6.01v-.1c0-.52-.07-1-.21-1.43-.14-.43-.35-.79-.6-1.09-.26-.3-.57-.54-.93-.7-.36-.17-.76-.25-1.2-.25Z"/><path class="cls-1" d="M45.4,12.63V3.96h.6v1.52h.07c.18-.41,.48-.76,.9-1.07,.42-.3,1.01-.45,1.8-.45h.65v.56h-.76c-.36,0-.7,.05-1.02,.14-.32,.09-.6,.23-.85,.41s-.43,.41-.58,.67c-.14,.27-.22,.58-.22,.93v5.96h-.6Z"/><path class="cls-1" d="M59.61,11.3h-.05c-.2,.41-.52,.76-.98,1.07-.46,.31-1.06,.46-1.8,.46-1.15,0-2.04-.38-2.68-1.15-.64-.77-.96-1.9-.96-3.39s.32-2.62,.96-3.39c.64-.77,1.53-1.15,2.68-1.15,.74,0,1.34,.15,1.8,.46,.46,.31,.79,.67,.98,1.09h.05V0h.6V12.63h-.6v-1.33Zm-2.74,1.01c.37,0,.72-.05,1.05-.15s.62-.25,.87-.44,.45-.42,.6-.69c.15-.27,.22-.57,.22-.9v-3.66c0-.32-.07-.61-.22-.88-.15-.27-.35-.5-.6-.68-.25-.19-.54-.34-.87-.45s-.69-.16-1.05-.16c-.98,0-1.74,.32-2.27,.95s-.8,1.49-.8,2.57v.99c0,1.08,.27,1.94,.8,2.57,.54,.63,1.29,.94,2.27,.94Z"/><path class="cls-1" d="M65.89,12.84c-1.16,0-2.08-.39-2.75-1.16-.67-.77-1.01-1.9-1.01-3.38s.33-2.59,.98-3.37c.66-.78,1.56-1.17,2.71-1.17,.54,0,1.03,.1,1.48,.31,.44,.2,.82,.49,1.14,.87,.32,.38,.56,.83,.73,1.36,.17,.53,.26,1.12,.26,1.77v.27h-6.66v.46c0,.54,.07,1.02,.21,1.45s.34,.8,.61,1.11c.27,.31,.6,.54,.98,.71,.38,.17,.82,.25,1.32,.25,1.39,0,2.35-.66,2.88-1.98l.47,.26c-.27,.68-.68,1.23-1.24,1.64-.56,.41-1.27,.61-2.11,.61Zm-.07-8.55c-.48,0-.91,.08-1.29,.25-.38,.17-.69,.4-.96,.71-.26,.31-.46,.68-.6,1.11s-.21,.91-.21,1.43v.07h6.01v-.1c0-.52-.07-1-.22-1.43-.14-.43-.34-.79-.6-1.09s-.57-.54-.93-.7c-.36-.17-.76-.25-1.2-.25Z"/><path class="cls-1" d="M72.09,12.63c-.49,0-.74-.24-.74-.72V0h.6V12.1h1.43v.53h-1.29Z"/><path class="cls-1" d="M85.84,12.63l-1.4-3.88h-5.37l-1.4,3.88h-.66L81.36,.72h.83l4.33,11.91h-.67Zm-4.06-11.3h-.07l-2.47,6.86h5.02l-2.49-6.86Z"/><path class="cls-1" d="M87.97,12.63V3.96h.6v1.33h.05c.17-.42,.47-.78,.91-1.08s1.03-.45,1.79-.45c.97,0,1.71,.28,2.22,.84,.51,.56,.77,1.39,.77,2.47v5.56h-.6V7.17c0-1-.22-1.73-.65-2.19s-1.06-.69-1.87-.69c-.33,0-.66,.04-.97,.14-.32,.09-.6,.23-.84,.41-.24,.18-.43,.41-.58,.68-.14,.27-.22,.59-.22,.96v6.16h-.6Zm4.44-10.65c-.22,0-.43-.04-.63-.12-.2-.08-.43-.21-.7-.38-.27-.16-.48-.27-.66-.34-.17-.07-.34-.1-.5-.1-.21,0-.4,.04-.57,.14-.17,.09-.35,.23-.54,.41l-.29-.33c.41-.49,.89-.73,1.43-.73,.22,0,.43,.04,.63,.12,.2,.08,.43,.2,.7,.38,.27,.16,.48,.27,.66,.34s.34,.1,.5,.1c.21,0,.4-.05,.57-.14s.35-.23,.54-.41l.29,.33c-.41,.49-.89,.73-1.43,.73Z"/><path class="cls-1" d="M99.79,12.84c-1.15,0-2.06-.39-2.72-1.16-.66-.77-.99-1.9-.99-3.38s.33-2.62,.99-3.39c.66-.77,1.57-1.15,2.72-1.15s2.06,.38,2.72,1.15c.66,.77,.99,1.9,.99,3.39s-.33,2.61-.99,3.38c-.66,.77-1.57,1.16-2.72,1.16Zm0-.53c.98,0,1.73-.32,2.26-.95s.79-1.5,.79-2.6v-.92c0-1.11-.27-1.99-.79-2.61s-1.28-.94-2.26-.94-1.73,.31-2.26,.94-.79,1.5-.79,2.61v.92c0,1.1,.26,1.97,.79,2.6s1.28,.95,2.26,.95Z"/><path class="cls-1" d="M.76,18.37H5.33c1.99,0,3.48,.62,4.49,1.87,1.01,1.25,1.51,3.1,1.51,5.58s-.5,4.33-1.51,5.58c-1.01,1.25-2.5,1.87-4.49,1.87H.76v-14.89Zm4.57,14.19c.86,0,1.62-.14,2.26-.42s1.18-.68,1.61-1.2c.43-.52,.75-1.15,.96-1.89,.21-.74,.31-1.56,.31-2.48v-1.54c0-.91-.11-1.74-.31-2.47-.21-.74-.53-1.37-.96-1.89-.43-.52-.97-.92-1.61-1.19s-1.39-.42-2.26-.42H1.56v13.48h3.78Z"/><path class="cls-1" d="M21.09,33.26c-.59,0-.9-.3-.93-.9v-.79h-.09c-.26,.55-.67,1.02-1.23,1.39-.56,.37-1.32,.55-2.27,.55-1.13,0-2.01-.27-2.63-.81-.62-.54-.93-1.3-.93-2.28,0-.47,.07-.9,.22-1.28s.38-.71,.72-.99,.78-.49,1.32-.64,1.21-.22,2-.22h2.87v-1.45c0-1.02-.25-1.78-.75-2.27-.5-.49-1.25-.74-2.24-.74-1.54,0-2.61,.64-3.19,1.92l-.54-.36c.3-.67,.75-1.21,1.34-1.61s1.4-.61,2.42-.61c1.22,0,2.15,.31,2.78,.93s.95,1.5,.95,2.66v6.85h1.68v.66h-1.49Zm-4.45-.41c.47,0,.92-.06,1.35-.18,.42-.12,.79-.29,1.11-.52s.57-.51,.76-.85c.19-.34,.28-.74,.28-1.2v-2.22h-2.87c-1.21,0-2.09,.2-2.63,.61s-.82,.94-.82,1.61v.6c0,.71,.26,1.25,.79,1.61,.52,.36,1.2,.54,2.04,.54Z"/><path class="cls-1" d="M25.7,33.26c-.62,0-.93-.3-.93-.9v-9.28h-1.99v-.66h1.42c.25,0,.41-.05,.49-.15,.08-.1,.12-.27,.12-.51v-2.41h.71v3.07h2.57v.66h-2.57v9.52h2.4v.66h-2.22Z"/><path class="cls-1" d="M37.36,33.26c-.59,0-.9-.3-.93-.9v-.79h-.09c-.26,.55-.67,1.02-1.23,1.39-.56,.37-1.32,.55-2.27,.55-1.13,0-2.01-.27-2.63-.81-.62-.54-.93-1.3-.93-2.28,0-.47,.07-.9,.22-1.28s.38-.71,.72-.99,.78-.49,1.32-.64,1.21-.22,2-.22h2.87v-1.45c0-1.02-.25-1.78-.75-2.27-.5-.49-1.25-.74-2.24-.74-1.54,0-2.61,.64-3.19,1.92l-.54-.36c.3-.67,.75-1.21,1.34-1.61s1.4-.61,2.42-.61c1.22,0,2.15,.31,2.78,.93s.95,1.5,.95,2.66v6.85h1.68v.66h-1.49Zm-4.45-.41c.47,0,.92-.06,1.35-.18,.42-.12,.79-.29,1.11-.52s.57-.51,.76-.85c.19-.34,.28-.74,.28-1.2v-2.22h-2.87c-1.21,0-2.09,.2-2.63,.61s-.82,.94-.82,1.61v.6c0,.71,.26,1.25,.79,1.61,.52,.36,1.2,.54,2.04,.54Z"/><path class="cls-1" d="M53.11,30.96c-.22,.36-.47,.69-.78,1s-.65,.58-1.06,.81c-.4,.23-.85,.41-1.33,.54s-1.01,.2-1.59,.2c-.68,0-1.29-.1-1.83-.29-.55-.19-1.01-.46-1.39-.8-.38-.34-.68-.75-.88-1.22s-.31-1-.31-1.57,.09-1.09,.28-1.52c.19-.43,.44-.82,.77-1.16s.7-.64,1.12-.91c.43-.26,.88-.51,1.35-.74-.65-.68-1.15-1.31-1.5-1.89-.35-.58-.53-1.21-.53-1.91,0-.5,.09-.95,.26-1.37s.42-.77,.74-1.07,.72-.53,1.18-.71c.46-.17,.97-.26,1.53-.26,.53,0,1.01,.08,1.45,.24s.8,.37,1.1,.64c.3,.27,.54,.59,.7,.96,.17,.37,.25,.77,.25,1.2,0,.51-.1,.97-.3,1.38s-.48,.78-.83,1.11c-.35,.33-.78,.65-1.27,.94s-1.05,.58-1.65,.87l4.42,4.4c.25-.57,.42-1.2,.53-1.91,.11-.71,.17-1.44,.18-2.21h2.48v.66h-1.83c-.04,.75-.13,1.45-.27,2.11-.14,.65-.33,1.27-.59,1.85l2.89,2.91h-.99l-2.29-2.3Zm-8.35-1.12c0,.46,.09,.87,.27,1.24s.43,.69,.76,.95c.32,.26,.71,.47,1.14,.61,.44,.14,.92,.21,1.46,.21,1.01,0,1.86-.2,2.57-.61s1.27-.98,1.71-1.73l-4.75-4.76c-.43,.21-.84,.43-1.22,.66-.38,.23-.72,.48-1,.76s-.51,.6-.68,.97c-.17,.37-.25,.8-.25,1.28v.41Zm4.36-11.07c-.46,0-.87,.07-1.23,.2s-.66,.32-.91,.54c-.24,.23-.44,.5-.57,.81s-.21,.65-.21,1v.34c0,.57,.19,1.12,.56,1.65,.38,.53,.83,1.09,1.36,1.67,.53-.24,1.03-.49,1.48-.76s.85-.54,1.19-.84c.34-.3,.6-.61,.79-.94,.19-.33,.28-.68,.28-1.07v-.28c0-.37-.08-.7-.23-.99-.15-.29-.35-.54-.59-.74-.24-.2-.54-.35-.87-.46-.34-.11-.69-.16-1.05-.16Z"/><path class="cls-1" d="M61.65,33.26v-.66h2.27v-13.57h-2.27v-.66h5.33v.66h-2.27v13.57h2.27v.66h-5.33Z"/><path class="cls-1" d="M79.09,33.26l-1.75-4.84h-6.71l-1.75,4.84h-.82l5.42-14.89h1.04l5.42,14.89h-.84Zm-5.07-14.12h-.09l-3.09,8.58h6.28l-3.11-8.58Z"/></g><g><path class="cls-3" d="M4.59,52.84h-.04c-.11,.59-.68,1.05-1.6,1.05-1.43,0-2.51-1.09-2.51-3.13s1.09-3.16,2.71-3.16c1.08,0,1.87,.5,2.3,1.39l-.93,.55c-.22-.52-.64-.92-1.37-.92-.9,0-1.49,.57-1.49,1.64v.98c0,1.06,.59,1.64,1.51,1.64,.71,0,1.3-.35,1.3-1.04v-.39h-1.19v-.97h2.3v3.31h-.99v-.94Z"/><path class="cls-3" d="M6.15,51.49c0-1.45,.81-2.37,2.11-2.37s2.12,.92,2.12,2.37-.81,2.39-2.12,2.39-2.11-.92-2.11-2.39Zm3.06,.43v-.85c0-.68-.37-1.05-.95-1.05s-.94,.37-.94,1.05v.85c0,.69,.37,1.06,.94,1.06s.95-.38,.95-1.06Z"/><path class="cls-3" d="M12.08,53.78c-.76,0-1.12-.4-1.12-1.1v-5.35h1.12v5.56h.6v.89h-.6Z"/><path class="cls-3" d="M15.96,53.02h-.04c-.16,.51-.65,.86-1.25,.86-1.14,0-1.78-.86-1.78-2.39s.64-2.37,1.78-2.37c.6,0,1.1,.33,1.25,.85h.04v-2.65h1.12v6.45h-1.12v-.76Zm0-.8v-1.45c0-.44-.41-.73-.94-.73-.58,0-.97,.43-.97,1.07v.78c0,.64,.39,1.06,.97,1.06,.53,0,.94-.27,.94-.74Z"/><path class="cls-3" d="M.81,57.5H3.31c.51,0,.9,.14,1.19,.43,.29,.28,.43,.66,.43,1.14,0,.23-.03,.42-.1,.57-.06,.16-.14,.29-.24,.39-.1,.1-.21,.18-.32,.23-.12,.05-.22,.08-.32,.1v.05c.11,0,.23,.04,.37,.09,.14,.05,.27,.13,.39,.25,.12,.11,.23,.26,.31,.44,.08,.18,.12,.39,.12,.64s-.04,.48-.12,.7-.19,.4-.33,.56c-.14,.16-.3,.28-.5,.37s-.4,.13-.63,.13H.81v-6.08Zm.73,2.63h1.68c.29,0,.52-.07,.68-.22,.16-.15,.24-.35,.24-.63v-.3c0-.27-.08-.48-.24-.63-.16-.15-.39-.22-.68-.22H1.54v1.99Zm0,2.8h1.8c.31,0,.56-.08,.74-.24,.18-.16,.27-.39,.27-.7v-.3c0-.31-.09-.54-.27-.7-.18-.16-.43-.24-.74-.24H1.54v2.18Z"/><path class="cls-3" d="M8.81,62.85h-.04c-.05,.1-.1,.21-.17,.31s-.15,.19-.25,.27c-.1,.08-.22,.14-.36,.18s-.3,.07-.49,.07c-.46,0-.83-.15-1.11-.45s-.41-.72-.41-1.27v-2.88h.7v2.77c0,.81,.34,1.21,1.03,1.21,.14,0,.28-.02,.41-.05,.13-.03,.25-.09,.35-.16,.1-.07,.18-.16,.24-.27s.09-.24,.09-.39v-3.12h.7v4.49h-.7v-.72Z"/><path class="cls-3" d="M11.94,63.68c-.42,0-.77-.08-1.05-.24-.28-.16-.52-.37-.73-.64l.5-.4c.17,.22,.37,.39,.58,.51s.46,.18,.75,.18,.53-.06,.69-.19c.16-.13,.25-.31,.25-.54,0-.17-.06-.32-.17-.45-.11-.12-.32-.21-.62-.26l-.36-.05c-.21-.03-.4-.07-.58-.13-.17-.06-.33-.14-.46-.24s-.23-.23-.3-.38-.11-.33-.11-.54c0-.22,.04-.41,.12-.58,.08-.17,.19-.3,.33-.41,.14-.11,.31-.19,.51-.25,.2-.05,.41-.08,.64-.08,.37,0,.67,.06,.92,.19s.46,.3,.65,.53l-.46,.42c-.1-.14-.24-.27-.44-.38s-.43-.17-.72-.17-.51,.06-.66,.19c-.15,.12-.22,.29-.22,.51s.07,.38,.22,.48c.15,.1,.36,.17,.64,.22l.35,.05c.5,.08,.85,.22,1.06,.43s.31,.49,.31,.83c0,.44-.15,.78-.44,1.03-.3,.25-.7,.37-1.22,.37Z"/><path class="cls-3" d="M14.79,58.03c-.15,0-.26-.04-.33-.11-.07-.07-.1-.17-.1-.28v-.11c0-.12,.03-.21,.1-.28,.07-.07,.18-.11,.33-.11s.26,.04,.33,.11c.07,.07,.1,.17,.1,.28v.11c0,.12-.03,.21-.1,.28-.07,.07-.18,.11-.33,.11Zm-.35,1.05h.7v4.49h-.7v-4.49Z"/><path class="cls-3" d="M16.22,63.57v-4.49h.7v.72h.04c.11-.25,.27-.45,.46-.6,.2-.15,.47-.22,.81-.22,.46,0,.83,.15,1.1,.45s.4,.72,.4,1.27v2.88h-.7v-2.77c0-.81-.34-1.21-1.02-1.21-.14,0-.28,.02-.41,.05-.13,.04-.25,.09-.35,.16-.11,.07-.19,.16-.25,.27s-.09,.23-.09,.38v3.12h-.7Z"/><path class="cls-3" d="M22.47,63.68c-.31,0-.58-.06-.83-.17-.25-.11-.46-.27-.63-.47s-.31-.45-.41-.74c-.1-.29-.14-.61-.14-.97s.05-.68,.14-.97c.1-.29,.23-.54,.41-.75s.39-.36,.63-.47c.25-.11,.53-.17,.83-.17s.57,.05,.81,.17c.24,.11,.44,.26,.61,.46,.17,.19,.3,.42,.39,.69,.09,.27,.13,.56,.13,.88v.33h-3.23v.21c0,.19,.03,.37,.09,.54,.06,.17,.15,.31,.26,.43,.11,.12,.25,.22,.42,.29s.35,.1,.56,.1c.28,0,.53-.07,.74-.2,.21-.13,.38-.33,.49-.58l.5,.36c-.15,.31-.37,.56-.68,.75-.31,.19-.67,.29-1.1,.29Zm0-4.12c-.19,0-.37,.03-.52,.1-.16,.07-.29,.16-.41,.28s-.2,.26-.27,.43c-.06,.16-.1,.34-.1,.54v.06h2.48v-.1c0-.4-.11-.72-.33-.96-.22-.24-.51-.36-.87-.36Z"/><path class="cls-3" d="M26.52,63.68c-.42,0-.77-.08-1.05-.24-.28-.16-.52-.37-.73-.64l.5-.4c.17,.22,.37,.39,.58,.51s.46,.18,.75,.18,.53-.06,.69-.19c.16-.13,.25-.31,.25-.54,0-.17-.06-.32-.17-.45-.11-.12-.32-.21-.62-.26l-.36-.05c-.21-.03-.4-.07-.58-.13-.17-.06-.33-.14-.46-.24s-.23-.23-.3-.38-.11-.33-.11-.54c0-.22,.04-.41,.12-.58,.08-.17,.19-.3,.33-.41,.14-.11,.31-.19,.51-.25,.2-.05,.41-.08,.64-.08,.37,0,.67,.06,.92,.19s.46,.3,.65,.53l-.46,.42c-.1-.14-.24-.27-.44-.38s-.43-.17-.72-.17-.51,.06-.66,.19c-.15,.12-.22,.29-.22,.51s.07,.38,.22,.48c.15,.1,.36,.17,.64,.22l.35,.05c.5,.08,.85,.22,1.06,.43s.31,.49,.31,.83c0,.44-.15,.78-.44,1.03-.3,.25-.7,.37-1.22,.37Z"/><path class="cls-3" d="M30.31,63.68c-.42,0-.77-.08-1.05-.24-.28-.16-.52-.37-.73-.64l.5-.4c.17,.22,.37,.39,.58,.51s.46,.18,.75,.18,.53-.06,.69-.19c.16-.13,.25-.31,.25-.54,0-.17-.06-.32-.17-.45-.11-.12-.32-.21-.62-.26l-.36-.05c-.21-.03-.4-.07-.58-.13-.17-.06-.33-.14-.46-.24s-.23-.23-.3-.38-.11-.33-.11-.54c0-.22,.04-.41,.12-.58,.08-.17,.19-.3,.33-.41,.14-.11,.31-.19,.51-.25,.2-.05,.41-.08,.64-.08,.37,0,.67,.06,.92,.19s.46,.3,.65,.53l-.46,.42c-.1-.14-.24-.27-.44-.38s-.43-.17-.72-.17-.51,.06-.66,.19c-.15,.12-.22,.29-.22,.51s.07,.38,.22,.48c.15,.1,.36,.17,.64,.22l.35,.05c.5,.08,.85,.22,1.06,.43s.31,.49,.31,.83c0,.44-.15,.78-.44,1.03-.3,.25-.7,.37-1.22,.37Z"/><path class="cls-3" d="M.81,73.37v-6.08H3.23c.54,0,.96,.16,1.26,.47s.44,.74,.44,1.28-.15,.97-.44,1.28-.71,.47-1.26,.47H1.54v2.59H.81Zm.73-3.24h1.69c.29,0,.52-.08,.67-.23,.16-.15,.24-.37,.24-.64v-.45c0-.28-.08-.49-.24-.64-.16-.15-.38-.23-.67-.23H1.54v2.19Z"/><path class="cls-3" d="M8.8,73.37c-.26,0-.45-.07-.56-.21s-.19-.31-.21-.52h-.04c-.1,.28-.26,.49-.49,.63-.22,.14-.5,.21-.81,.21-.48,0-.85-.12-1.11-.37-.26-.24-.4-.57-.4-.99s.16-.75,.47-.98,.79-.34,1.45-.34h.89v-.44c0-.32-.09-.56-.26-.73-.17-.17-.44-.25-.8-.25-.27,0-.5,.06-.68,.18-.18,.12-.34,.29-.46,.49l-.42-.39c.12-.24,.32-.45,.58-.62,.27-.17,.6-.26,1.01-.26,.54,0,.97,.13,1.27,.4,.3,.27,.45,.64,.45,1.11v2.47h.51v.62h-.39Zm-2-.49c.17,0,.33-.02,.48-.06,.14-.04,.27-.1,.38-.17,.1-.08,.19-.16,.24-.26,.06-.1,.09-.21,.09-.32v-.74h-.92c-.4,0-.69,.06-.88,.17-.18,.12-.27,.28-.27,.5v.18c0,.22,.08,.39,.24,.51,.16,.12,.38,.18,.65,.18Z"/><path class="cls-3" d="M9.8,73.37v-4.49h.7v.83h.04c.08-.21,.23-.41,.44-.58,.21-.17,.5-.25,.86-.25h.27v.7h-.41c-.38,0-.67,.07-.88,.21-.21,.14-.32,.32-.32,.54v3.05h-.7Z"/><path class="cls-3" d="M13.63,73.37c-.24,0-.43-.07-.55-.2s-.19-.31-.19-.53v-3.14h-.74v-.62h.42c.15,0,.25-.03,.31-.09s.08-.17,.08-.32v-.84h.63v1.25h.98v.62h-.98v3.26h.91v.62h-.87Z"/><path class="cls-3" d="M15.3,73.37v-4.49h.7v.72h.04c.11-.25,.27-.45,.46-.6,.2-.15,.47-.22,.81-.22,.46,0,.83,.15,1.1,.45s.4,.72,.4,1.27v2.88h-.7v-2.77c0-.81-.34-1.21-1.02-1.21-.14,0-.28,.02-.41,.05-.13,.04-.25,.09-.35,.16-.11,.07-.19,.16-.25,.27s-.09,.23-.09,.38v3.12h-.7Z"/><path class="cls-3" d="M21.54,73.48c-.31,0-.58-.06-.83-.17-.25-.11-.46-.27-.63-.47s-.31-.45-.41-.74c-.1-.29-.14-.61-.14-.97s.05-.68,.14-.97c.1-.29,.23-.54,.41-.75s.39-.36,.63-.47c.25-.11,.53-.17,.83-.17s.57,.05,.81,.17c.24,.11,.44,.26,.61,.46,.17,.19,.3,.42,.39,.69,.09,.27,.13,.56,.13,.88v.33h-3.23v.21c0,.19,.03,.37,.09,.54,.06,.17,.15,.31,.26,.43,.11,.12,.25,.22,.42,.29s.35,.1,.56,.1c.28,0,.53-.07,.74-.2,.21-.13,.38-.33,.49-.58l.5,.36c-.15,.31-.37,.56-.68,.75-.31,.19-.67,.29-1.1,.29Zm0-4.12c-.19,0-.37,.03-.52,.1-.16,.07-.29,.16-.41,.28s-.2,.26-.27,.43c-.06,.16-.1,.34-.1,.54v.06h2.48v-.1c0-.4-.11-.72-.33-.96-.22-.24-.51-.36-.87-.36Z"/><path class="cls-3" d="M24.24,73.37v-4.49h.7v.83h.04c.08-.21,.23-.41,.44-.58,.21-.17,.5-.25,.86-.25h.27v.7h-.41c-.38,0-.67,.07-.88,.21-.21,.14-.32,.32-.32,.54v3.05h-.7Z"/></g><line class="cls-2" y1="81.67" x2="108.4" y2="81.67"/><path class="cls-1" d="M61.84,46.38v1.18h8.42v-1.18h-8.42Zm9.61,0v1.18h11.99s-1.22-1.18-2.85-1.18h-9.15Zm14.35,0v1.18h7.26l-.43-1.18h-6.83Zm12.46,0l-.43,1.18h7.19v-1.18h-6.76Zm-36.41,2.3v1.18h8.42v-1.18h-8.42Zm9.61,0v1.18h13.39s-.16-.91-.43-1.18h-12.96Zm14.35,0v1.18h8.05l-.4-1.18h-7.65Zm11.6,0l-.4,1.18h8.02v-1.18h-7.62Zm-33.13,2.3v1.19h3.65v-1.19h-3.65Zm9.61,0v1.19h3.64v-1.19h-3.64Zm7.19,0v1.19h3.64s.23-.63,.23-1.19h-3.88Zm7.16,0v1.19h6.46l-.43-1.19h-6.03Zm8.38,0l-.43,1.19h6.49v-1.19h-6.06Zm-32.34,2.3v1.18h3.65v-1.18h-3.65Zm9.61,0v1.18h9.31s.78-.61,1.03-1.18h-10.34Zm14.35,0v1.18h3.64v-.66l.23,.66h6.68l.25-.66v.66h3.64v-1.18h-6.84l-.36,1-.36-1h-6.88Zm-23.95,2.3v1.18h3.65v-1.18h-3.65Zm9.61,0v1.18h10.34c-.25-.57-1.03-1.18-1.03-1.18h-9.31Zm14.35,0v1.18h3.64v-1.18h-3.64Zm4.31,0l.44,1.18h5.01l.42-1.18h-5.87Zm6.49,0v1.18h3.64v-1.18h-3.64Zm-34.76,2.3v1.18h3.65v-1.18h-3.65Zm9.61,0v1.18h3.64v-1.18h-3.64Zm7.19,0v1.18h3.88c0-.56-.23-1.18-.23-1.18h-3.64Zm7.16,0v1.18h3.64v-1.18h-3.64Zm5.13,0l.43,1.18h3.36l.43-1.18h-4.21Zm5.67,0v1.18h3.64v-1.18h-3.64Zm-37.11,2.3v1.19h8.42v-1.19h-8.42Zm9.54,0v1.19h12.96c.27-.27,.43-1.19,.43-1.19h-13.39Zm14.41,0v1.19h6v-1.19h-6Zm8.32,0l.44,1.19h1.71l.41-1.19h-2.56Zm4.84,0v1.19h6.06v-1.19h-6.06Zm-37.11,2.3v1.18h8.42v-1.18h-8.42Zm9.54,0v1.18h9.15c1.62,0,2.85-1.18,2.85-1.18h-11.99Zm14.41,0v1.18h6v-1.18h-6Zm9.15,0l.42,1.18h.07l.43-1.18h-.92Zm4,0v1.18h6.06v-1.18h-6.06Z"/></g></g></svg>