<svg width="355" height="63" viewBox="0 0 355 63" fill="none" xmlns="http://www.w3.org/2000/svg">
<path d="M61.9456 51.2412C55.8369 51.2412 50.8668 46.2717 50.8668 40.1636C50.8668 36.0537 53.1182 32.4628 56.45 30.5503L60.8586 40.6357C61.0524 41.0821 61.4885 41.3484 61.9456 41.3484C62.1034 41.3484 62.2636 41.3166 62.4177 41.25C63.0176 40.9891 63.293 40.2914 63.032 39.6909L58.6408 29.5887C59.6846 29.2617 60.795 29.0848 61.9456 29.0848C67.9499 29.0848 73.0233 34.1581 73.0233 40.1636C73.0233 46.2717 68.0537 51.2412 61.9456 51.2412ZM38.407 35.7184C37.6055 35.1797 36.6415 34.8648 35.6055 34.8648C35.2707 34.8648 34.9438 34.8983 34.6271 34.9607L31.4728 28.4597L39.0165 24.6726L51.0929 22.5033L38.407 35.7184ZM71.7569 30.272C69.0915 27.6342 65.6074 26.1813 61.9456 26.1813C60.3835 26.1813 58.8814 26.4386 57.4776 26.9132L54.5273 20.1248H54.5267L51.2525 12.5919C51.2525 12.5919 52.6113 11.998 53.4091 11.7479C55.7403 11.0172 56.7745 11.1942 57.0175 11.4143C57.9875 12.2902 57.7854 13.175 57.6678 13.4906C57.6534 13.5289 57.6306 13.5865 57.6252 13.5985C57.5028 13.8847 57.4908 14.2182 57.6222 14.5278C57.8771 15.1301 58.5724 15.4114 59.1747 15.1564C59.4273 15.0491 59.6222 14.8643 59.7464 14.6417C59.7464 14.6417 59.7692 14.5991 59.7746 14.589C60.2407 13.6243 60.5689 11.4299 58.6066 9.65603C57.489 8.64641 55.5573 8.59122 52.7001 9.48686C51.6898 9.8036 51.0581 10.0484 49.8374 10.7178C48.9243 11.2182 48.4606 11.6315 48.2668 11.8318L51.6724 19.6233L28.9797 25.5736L26.9226 22.0378L26.7211 22.1518L23.0665 15.7252C23.4636 15.6136 23.9082 15.4906 24.4067 15.3544C28.4452 14.2518 29.6965 14.0718 29.7097 13.4941C29.7319 12.5091 29.1194 12.5091 28.5423 12.5091H17.9171C17.4887 12.5091 17.0933 12.7395 16.8842 13.1132C16.6738 13.4857 16.6809 13.9423 16.9028 14.3088L17.9593 16.1235C18.1786 16.4858 18.5665 16.694 18.9719 16.694C19.5601 16.694 19.9835 16.595 21.1719 16.2603L25.0552 23.09L24.8572 23.2022C24.8572 23.2022 29.6629 31.8299 29.7805 32.0722C29.9605 32.4412 29.9113 32.7537 29.5346 32.8563C29.0187 32.9967 13.0789 38.992 13.0789 38.992C13.0789 38.992 13.346 40.5793 13.2387 41.3478H30.7835C31.4074 43.4204 33.3325 44.9352 35.6055 44.9352C38.3818 44.9352 40.641 42.6766 40.641 39.8997C40.641 39.0856 40.4454 38.3159 40.1005 37.6345L53.6725 24.1974L55.2796 27.8748C50.925 30.2462 47.9633 34.8654 47.9633 40.1636C47.9633 47.8728 54.2352 54.1453 61.9456 54.1453C69.6548 54.1453 75.9273 47.8728 75.9273 40.1636C75.9273 36.4473 74.4462 32.9343 71.7569 30.272Z" fill="#292823"/>
<path d="M65.4916 40.1702C65.4916 42.0959 63.9307 43.6574 62.005 43.6574C60.0794 43.6574 58.5179 42.0959 58.5179 40.1702C58.5179 38.2446 60.0794 36.6836 62.005 36.6836C63.9307 36.6836 65.4916 38.2446 65.4916 40.1702Z" fill="#292823"/>
<path d="M40.0723 48.8639C39.7795 48.8639 39.497 48.7043 39.3536 48.4266L36.3991 42.7114C36.194 42.3143 36.3493 41.8265 36.7459 41.622C37.1424 41.4168 37.6301 41.5722 37.8347 41.9687L40.7891 47.6845C40.9943 48.081 40.8389 48.5688 40.4424 48.7733C40.3242 48.8351 40.197 48.8639 40.0723 48.8639Z" fill="#292823"/>
<path d="M43.0819 48.1506C43.0819 48.6233 42.6992 49.006 42.2265 49.006H38.0116C37.5389 49.006 37.1562 48.6233 37.1562 48.1506C37.1562 47.6779 37.5389 47.2946 38.0116 47.2946H42.2265C42.6992 47.2946 43.0819 47.6779 43.0819 48.1506Z" fill="#292823"/>
<path d="M38.0117 47.4847C37.6445 47.4847 37.3458 47.7835 37.3458 48.1506C37.3458 48.5178 37.6445 48.8159 38.0117 48.8159H42.2265C42.5936 48.8159 42.8924 48.5178 42.8924 48.1506C42.8924 47.7835 42.5936 47.4847 42.2265 47.4847H38.0117ZM42.2265 49.1962H38.0117C37.4352 49.1962 36.9654 48.7271 36.9654 48.1506C36.9654 47.5741 37.4352 47.1044 38.0117 47.1044H42.2265C42.803 47.1044 43.2721 47.5741 43.2721 48.1506C43.2721 48.7271 42.803 49.1962 42.2265 49.1962Z" fill="#292823"/>
<path d="M41.5 29.5869L38.1664 35.0261C38.1424 35.0645 38.083 35.0447 38.0872 35.0003L38.458 30.7453L36.2318 30.6157C36.1898 30.6133 36.1652 30.5671 36.1868 30.5311L39.5228 24.9071C39.5456 24.8681 39.6056 24.8873 39.602 24.9323L39.2306 29.3721L41.4556 29.5017C41.4976 29.5041 41.5222 29.5509 41.5 29.5869ZM29.2862 27.4159L36.3607 40.1702C36.3607 40.1702 43.0238 32.2792 45.8313 28.9834C46.7293 27.9294 52.6059 26.0961 52.6029 21.213C52.6023 19.8416 27.7961 27.8712 29.2862 27.4159Z" fill="#292823"/>
<path d="M13.9823 28.9822C7.81672 28.9822 2.8009 33.9979 2.8009 40.163C2.8009 46.3287 7.81672 51.3444 13.9823 51.3444C20.1475 51.3444 25.1637 46.3287 25.1637 40.163C25.1637 34.1023 20.043 28.9822 13.9823 28.9822ZM13.9823 52.747C7.04334 52.747 1.39823 47.102 1.39823 40.163C1.39823 33.224 7.04334 27.579 13.9823 27.579C17.2779 27.579 20.4141 28.8868 22.8127 31.2612C25.2333 33.6571 26.5663 36.8186 26.5663 40.163C26.5663 47.102 20.921 52.747 13.9823 52.747Z" fill="#292823"/>
<path d="M13.9823 28.5503C7.57899 28.5503 2.36958 33.7597 2.36958 40.163C2.36958 46.5663 7.57899 51.7758 13.9823 51.7758C20.3853 51.7758 25.5945 46.5663 25.5945 40.163C25.5945 33.8683 20.277 28.5503 13.9823 28.5503ZM13.9823 54.1453C6.27224 54.1453 0 47.8728 0 40.163C0 32.4532 6.27224 26.1807 13.9823 26.1807C17.644 26.1807 21.1287 27.6336 23.7936 30.272C26.4835 32.9343 27.9646 36.4467 27.9646 40.163C27.9646 47.8728 21.692 54.1453 13.9823 54.1453Z" fill="#292823"/>
<path d="M17.4477 40.163C17.4477 42.0773 15.8962 43.6286 13.9823 43.6286C12.0683 43.6286 10.5168 42.0773 10.5168 40.163C10.5168 38.2494 12.0683 36.6975 13.9823 36.6975C15.8962 36.6975 17.4477 38.2494 17.4477 40.163Z" fill="#292823"/>
<path d="M92.7914 46L103.189 18.891H111.566L121.963 46H113.712L111.439 40.233H103.273L101.042 46H92.7914ZM104.325 34.5502H110.387L107.356 26.5943L104.325 34.5502ZM128.37 46L120.498 26.0471H128.749L132.537 37.7494L136.326 26.0471H144.577L136.705 46H128.37ZM151.865 46.4209C150.602 46.4209 149.424 46.1964 148.329 45.7474C147.263 45.2984 146.407 44.5968 145.761 43.6427C145.116 42.6885 144.793 41.4818 144.793 40.0225C144.793 37.9178 145.495 36.2901 146.898 35.1396C148.301 33.9609 150.42 33.3716 153.254 33.3716H158.432V32.9927C158.432 32.207 158.109 31.6317 157.464 31.2668C156.818 30.902 155.682 30.7196 154.054 30.7196C151.753 30.7196 149.48 31.0704 147.235 31.772V27.0153C148.245 26.6224 149.508 26.2997 151.023 26.0471C152.539 25.7665 154.082 25.6261 155.654 25.6261C158.825 25.6261 161.336 26.2716 163.189 27.5625C165.041 28.8534 165.967 30.902 165.967 33.7083V46H159.063L158.684 44.4004C157.983 45.0178 157.071 45.5089 155.948 45.8737C154.854 46.2385 153.493 46.4209 151.865 46.4209ZM154.559 41.7905C155.457 41.7905 156.215 41.6362 156.832 41.3275C157.478 41.0188 158.011 40.6399 158.432 40.1909V37.7073H154.601C152.861 37.7073 151.991 38.3949 151.991 39.77C151.991 41.117 152.847 41.7905 154.559 41.7905ZM178.021 46.4209C176.141 46.4209 174.499 46.1123 173.096 45.4949C171.721 44.8494 170.64 43.8111 169.855 42.3799C169.097 40.9486 168.718 39.0403 168.718 36.655C168.718 34.2135 169.153 32.1789 170.023 30.5512C170.893 28.9236 172.058 27.7028 173.517 26.889C174.976 26.0471 176.562 25.6261 178.274 25.6261C179.2 25.6261 180.112 25.7244 181.01 25.9208C181.936 26.1172 182.736 26.3979 183.409 26.7627V17.6281H191.323V46H184.462L184.083 44.4425C183.297 45.0599 182.413 45.551 181.431 45.9158C180.477 46.2526 179.34 46.4209 178.021 46.4209ZM180.294 40.6961C181.501 40.6961 182.539 40.2891 183.409 39.4753V32.4034C182.623 31.7018 181.585 31.351 180.294 31.351C179.256 31.351 178.414 31.8141 177.769 32.7402C177.123 33.6662 176.8 34.9852 176.8 36.6971C176.8 38.3808 177.081 39.4753 177.642 39.9804C178.204 40.4575 179.088 40.6961 180.294 40.6961ZM201.154 46.4209C199.891 46.4209 198.712 46.1964 197.618 45.7474C196.551 45.2984 195.696 44.5968 195.05 43.6427C194.405 42.6885 194.082 41.4818 194.082 40.0225C194.082 37.9178 194.783 36.2901 196.187 35.1396C197.59 33.9609 199.709 33.3716 202.543 33.3716H207.721V32.9927C207.721 32.207 207.398 31.6317 206.752 31.2668C206.107 30.902 204.97 30.7196 203.343 30.7196C201.042 30.7196 198.768 31.0704 196.523 31.772V27.0153C197.534 26.6224 198.797 26.2997 200.312 26.0471C201.827 25.7665 203.371 25.6261 204.942 25.6261C208.113 25.6261 210.625 26.2716 212.477 27.5625C214.329 28.8534 215.256 30.902 215.256 33.7083V46H208.352L207.973 44.4004C207.272 45.0178 206.36 45.5089 205.237 45.8737C204.143 46.2385 202.781 46.4209 201.154 46.4209ZM203.848 41.7905C204.746 41.7905 205.504 41.6362 206.121 41.3275C206.766 41.0188 207.3 40.6399 207.721 40.1909V37.7073H203.89C202.15 37.7073 201.28 38.3949 201.28 39.77C201.28 41.117 202.136 41.7905 203.848 41.7905ZM227.481 46V18.891H248.024V24.9526H235.395V29.3726H246.466V35.5184H235.395V39.9384H248.024V46H227.481ZM249.701 37.0759V31.0143H266.75V37.0759H249.701ZM269.7 46V18.891H284.601C287.351 18.891 289.442 19.5364 290.873 20.8273C292.304 22.1182 293.02 23.9704 293.02 26.3838C293.02 27.787 292.753 28.9657 292.22 29.9198C291.715 30.8739 291.042 31.6317 290.2 32.1929C291.35 32.6419 292.262 33.3014 292.936 34.1714C293.637 35.0133 293.988 36.2761 293.988 37.9599C293.988 40.5136 293.202 42.4921 291.631 43.8953C290.059 45.2984 287.828 46 284.938 46H269.7ZM277.319 29.7093H282.454C284.391 29.7093 285.359 28.8394 285.359 27.0995C285.359 26.2295 285.12 25.57 284.643 25.121C284.194 24.672 283.394 24.4475 282.244 24.4475H277.319V29.7093ZM277.319 40.4856H282.791C283.857 40.4856 284.643 40.2611 285.148 39.8121C285.653 39.3631 285.906 38.6194 285.906 37.581C285.906 36.7111 285.653 36.0516 285.148 35.6026C284.643 35.1536 283.801 34.9291 282.623 34.9291H277.319V40.4856ZM297.727 23.3951V17.6702H306.272V23.3951H297.727ZM298.358 46V31.8141H295.454L296.127 26.0471H306.272V46H298.358ZM310.068 46V17.6281H317.982V31.6457L323.538 26.0471H332.504L324.548 34.466L332.967 46H324.548L319.623 38.5913L317.982 40.233V46H310.068ZM343.952 46.4209C341.622 46.4209 339.56 46.0421 337.764 45.2844C335.996 44.4986 334.607 43.334 333.596 41.7905C332.614 40.247 332.123 38.3388 332.123 36.0656C332.123 32.8945 333.021 30.3688 334.817 28.4886C336.613 26.5803 339.293 25.6261 342.857 25.6261C346.113 25.6261 348.652 26.454 350.476 28.1097C352.329 29.7655 353.255 32.0245 353.255 34.887V38.3808H339.406C339.77 39.4472 340.486 40.205 341.552 40.654C342.619 41.103 344.064 41.3275 345.888 41.3275C347.039 41.3275 348.189 41.2293 349.34 41.0328C350.519 40.8083 351.459 40.5557 352.16 40.2751V45.0318C350.196 45.9579 347.46 46.4209 343.952 46.4209ZM339.406 34.0872H346.435V33.3716C346.435 32.5858 346.183 31.9404 345.678 31.4352C345.201 30.9301 344.345 30.6775 343.11 30.6775C341.735 30.6775 340.767 30.9722 340.205 31.5615C339.672 32.1228 339.406 32.9647 339.406 34.0872Z" fill="#292823"/>
</svg>
